<svg xmlns="http://www.w3.org/2000/svg" width="24" height="24" viewBox="0 0 24 24">
    <defs>
        <clipPath id="vbd7x3ccfa">
            <path data-name="사각형 1533" style="fill:none" d="M0 0h4v17H0z"/>
        </clipPath>
    </defs>
    <g transform="translate(-360 -2775)">
        <circle data-name="타원 36" cx="12" cy="12" r="12" transform="translate(360 2775)" style="fill:#333"/>
        <g data-name="그룹 768" transform="translate(370 2779)" style="clip-path:url(#vbd7x3ccfa)">
            <path data-name="합치기 1" d="M-2815-9265.291a2 2 0 0 1 2-2 2 2 0 0 1 2 2 2 2 0 0 1-2 2 2 2 0 0 1-2-2zm.738-5.405-.419-7.562a1.649 1.649 0 0 1 1.646-1.742 1.651 1.651 0 0 1 1.647 1.742l-.419 7.563a1.23 1.23 0 0 1-1.227 1.159 1.228 1.228 0 0 1-1.227-1.164z" transform="translate(2815 9280.291)" style="fill:#fff"/>
        </g>
    </g>
</svg>
