<svg xmlns="http://www.w3.org/2000/svg" width="54.5" height="54.5" viewBox="0 0 54.5 54.5">
    <path data-name="타원 11" d="M1.535 0A1.535 1.535 0 1 1 0 1.535 1.536 1.536 0 0 1 1.535 0z" transform="rotate(-76.7 19.458 -10.977)" style="stroke-width:.5px;stroke-linecap:round;stroke:#000"/>
    <path data-name="패스 585" d="M49.074 113.975H4.925A4.957 4.957 0 0 1 0 109V77.162a4.957 4.957 0 0 1 4.926-4.977h6.016a.752.752 0 0 1 0 1.5H4.925a3.459 3.459 0 0 0-3.437 3.473V109a3.459 3.459 0 0 0 3.437 3.473h44.149A3.459 3.459 0 0 0 52.511 109V77.162a3.459 3.459 0 0 0-3.437-3.473h-2.2a.752.752 0 0 1 0-1.5h2.2A4.957 4.957 0 0 1 54 77.162V109a4.957 4.957 0 0 1-4.926 4.975z" transform="translate(.251 -59.725)" style="stroke-width:.5px;stroke-linecap:round;stroke:#000"/>
    <path data-name="패스 586" d="M72.621 12.965a8.4 8.4 0 1 1 16.784 0h7.141v8.459H65.48v-8.459z" transform="translate(-53.215 -3.606)" style="fill:#fff;stroke-width:.5px;stroke:#000"/>
    <path data-name="패스 587" d="M93.658 18.178H61.952a.75.75 0 0 1-.755-.745V9.2a.75.75 0 0 1 .755-.745h6.563a9.331 9.331 0 0 1 18.58 0h6.563a.75.75 0 0 1 .755.745v8.235a.75.75 0 0 1-.755.743zm-30.95-1.491H92.9V9.943h-6.53a.75.75 0 0 1-.755-.745A7.81 7.81 0 0 0 70 9.2a.75.75 0 0 1-.755.745h-6.538z" transform="translate(-50.298 .25)" style="stroke-width:.5px;stroke-linecap:round;stroke:#000"/>
    <path data-name="패스 588" d="M63.741 155.732h-.017a4.8 4.8 0 1 1 .017 0zm.011-8.112a3.311 3.311 0 0 0-.023 6.622l.012.745v-.745a3.311 3.311 0 0 0 .011-6.622z" transform="translate(-48.331 -120.446)" style="fill:#0148bc;stroke:#0148bc;stroke-width:.5px;stroke-linecap:round"/>
    <path data-name="패스 589" d="M52.847 223.253h-.028a.745.745 0 0 1-.717-.773l.067-1.789a3.418 3.418 0 0 0-2.447-3.372 16.471 16.471 0 0 0-4.751-.619 16.472 16.472 0 0 0-4.76.591 3.422 3.422 0 0 0-2.47 3.351l.046 1.83a.745.745 0 1 1-1.49.037l-.045-1.824a4.912 4.912 0 0 1 3.529-4.821 17.949 17.949 0 0 1 5.2-.655 17.936 17.936 0 0 1 5.186.685 4.909 4.909 0 0 1 3.5 4.855l-.067 1.787a.745.745 0 0 1-.753.717z" transform="translate(-29.69 -177.503)" style="fill:#0148bc;stroke:#0148bc;stroke-width:.5px;stroke-linecap:round"/>
    <path data-name="선 3" d="M11.126-2.891h-14.75a.678.678 0 0 1-.659-.7.678.678 0 0 1 .659-.7h14.75a.678.678 0 0 1 .659.7.678.678 0 0 1-.659.7z" transform="translate(33.797 30.676)" style="stroke-width:.5px;stroke-linecap:round;stroke:#000"/>
    <path data-name="선 4" d="M11.126-2.891h-14.75a.678.678 0 0 1-.659-.7.678.678 0 0 1 .659-.7h14.75a.678.678 0 0 1 .659.7.678.678 0 0 1-.659.7z" transform="translate(33.797 37.105)" style="stroke-width:.5px;stroke-linecap:round;stroke:#000"/>
    <path data-name="선 5" d="M11.126-2.891h-14.75a.678.678 0 0 1-.659-.7.678.678 0 0 1 .659-.7h14.75a.678.678 0 0 1 .659.7.678.678 0 0 1-.659.7z" transform="translate(33.797 43.534)" style="stroke-width:.5px;stroke-linecap:round;stroke:#000"/>
</svg>
