<svg data-name="그룹 772" xmlns="http://www.w3.org/2000/svg" width="47.806" height="44" viewBox="0 0 47.806 44">
    <defs>
        <clipPath id="zm6ajur8na">
            <path data-name="사각형 1536" style="fill:none" d="M0 0h47.806v44H0z"/>
        </clipPath>
    </defs>
    <g data-name="그룹 771" style="clip-path:url(#zm6ajur8na)">
        <path data-name="패스 762" d="M9.411 92.326h40.636a1.376 1.376 0 0 0 1.376-1.376V67.6H8.035v23.35a1.376 1.376 0 0 0 1.376 1.376" transform="translate(-5.826 -49.014)" style="fill:#fff"/>
        <path data-name="패스 763" d="M9.411 92.326h40.636a1.376 1.376 0 0 0 1.376-1.376V67.6H8.035v23.35a1.376 1.376 0 0 0 1.376 1.376z" transform="translate(-5.826 -49.014)" style="stroke:#b8b8b8;stroke-linecap:round;stroke-miterlimit:10;stroke-width:2px;fill:none"/>
        <path data-name="사각형 1534" transform="translate(14.725 27.136)" style="stroke:#b8b8b8;stroke-linecap:round;stroke-miterlimit:10;stroke-width:2px;fill:none" d="M0 0h18.357v16.177H0z"/>
        <path data-name="선 43" transform="translate(23.903 27.137)" style="stroke:#b8b8b8;stroke-linecap:round;stroke-miterlimit:10;stroke-width:2px;fill:none" d="M0 0v15.975"/>
        <rect data-name="사각형 1535" width="21.947" height="2.809" rx="1.404" transform="translate(12.93 24.327)" style="stroke:#b8b8b8;stroke-linecap:round;stroke-miterlimit:10;stroke-width:2px;fill:none"/>
        <path data-name="패스 764" d="M47.557 11.325h-12a.2.2 0 0 1-.194-.176 9.705 9.705 0 0 0-19.295 0 .2.2 0 0 1-.194.176h-12A1.376 1.376 0 0 0 2.5 12.7v6.324A1.376 1.376 0 0 0 3.877 20.4h43.68a1.376 1.376 0 0 0 1.376-1.376V12.7a1.376 1.376 0 0 0-1.376-1.376" transform="translate(-1.813 -1.813)" style="fill:#fff"/>
        <path data-name="패스 765" d="M47.557 11.325h-12a.2.2 0 0 1-.194-.176 9.705 9.705 0 0 0-19.295 0 .2.2 0 0 1-.194.176h-12A1.376 1.376 0 0 0 2.5 12.7v6.324A1.376 1.376 0 0 0 3.877 20.4h43.68a1.376 1.376 0 0 0 1.376-1.376V12.7a1.376 1.376 0 0 0-1.376-1.375z" transform="translate(-1.813 -1.813)" style="stroke:#b8b8b8;stroke-linecap:round;stroke-miterlimit:10;stroke-width:2px;fill:none"/>
        <path data-name="패스 766" d="m75.107 33.356-2.439 2.45a2.8 2.8 0 0 1-3.968-3.949l2.439-2.45z" transform="translate(-49.221 -21.321)" style="fill:#e5e6e8"/>
        <path data-name="패스 767" d="m75.107 33.356-2.439 2.45a2.8 2.8 0 0 1-3.968-3.949l2.439-2.45z" transform="translate(-49.221 -21.321)" style="stroke:#b8b8b8;stroke-linecap:round;stroke-miterlimit:10;stroke-width:2px;fill:none"/>
        <path data-name="패스 768" d="m86.129 22.274-2.439 2.45-3.966-3.949 2.439-2.45a2.8 2.8 0 1 1 3.966 3.949z" transform="translate(-57.803 -12.689)" style="stroke:#b8b8b8;stroke-linecap:round;stroke-miterlimit:10;stroke-width:2px;fill:none"/>
    </g>
</svg>
