<svg data-name="그룹 765" xmlns="http://www.w3.org/2000/svg" width="40" height="48" viewBox="0 0 40 48">
    <defs>
        <clipPath id="ox43tr8eia">
            <path data-name="사각형 1529" style="fill:none" d="M0 0h40v48H0z"/>
        </clipPath>
    </defs>
    <g data-name="그룹 764" style="clip-path:url(#ox43tr8eia)">
        <path data-name="패스 753" d="M40.846 81.369v13.862a1.543 1.543 0 0 1-1.538 1.538H8.538A1.543 1.543 0 0 1 7 95.231V57.538A1.543 1.543 0 0 1 8.538 56h3.846" transform="translate(-6.231 -49.846)" style="stroke:#b8b8b8;stroke-linecap:round;stroke-linejoin:round;stroke-width:2px;fill:none"/>
        <path data-name="패스 754" d="M266 56h3.846a1.543 1.543 0 0 1 1.538 1.538v9.046" transform="translate(-236.769 -49.846)" style="stroke:#b8b8b8;stroke-linecap:round;stroke-linejoin:round;stroke-width:2px;fill:none"/>
        <path data-name="패스 755" d="M99.385 10.077h-2.308V8.538A1.538 1.538 0 0 0 95.538 7h-6.153a1.538 1.538 0 0 0-1.538 1.538v1.538h-2.309A1.538 1.538 0 0 0 84 11.615v2.308h16.923v-2.308a1.538 1.538 0 0 0-1.538-1.538z" transform="translate(-74.769 -6.231)" style="stroke:#b8b8b8;stroke-linecap:round;stroke-linejoin:round;stroke-width:2px;fill:none"/>
        <path data-name="패스 756" d="m84 141.154 1.154 1.154L87.462 140" transform="translate(-74.769 -124.615)" style="stroke:#b8b8b8;stroke-linecap:round;stroke-linejoin:round;stroke-width:2px;fill:none"/>
        <path data-name="패스 757" d="M65.954 126H63v6.154h6.154v-.646" transform="translate(-56.077 -112.154)" style="stroke:#b8b8b8;stroke-linecap:round;stroke-linejoin:round;stroke-width:2px;fill:none"/>
        <path data-name="패스 758" d="m84 232.154 1.154 1.154L87.462 231" transform="translate(-74.769 -205.615)" style="stroke:#b8b8b8;stroke-linecap:round;stroke-linejoin:round;stroke-width:2px;fill:none"/>
        <path data-name="패스 759" d="M65.954 217H63v6.154h6.154v-.646" transform="translate(-56.077 -193.154)" style="stroke:#b8b8b8;stroke-linecap:round;stroke-linejoin:round;stroke-width:2px;fill:none"/>
        <path data-name="사각형 1528" transform="translate(7 34)" style="stroke:#b8b8b8;stroke-linecap:round;stroke-linejoin:round;stroke-width:2px;fill:none" d="M0 0h6v6H0z"/>
        <path data-name="선 34" transform="translate(17 15)" style="stroke:#b8b8b8;stroke-linecap:round;stroke-linejoin:round;stroke-width:2px;fill:none" d="M0 0h11"/>
        <path data-name="선 35" transform="translate(17 18)" style="stroke:#b8b8b8;stroke-linecap:round;stroke-linejoin:round;stroke-width:2px;fill:none" d="M0 0h8"/>
        <path data-name="선 36" transform="translate(16.923 24.615)" style="stroke:#b8b8b8;stroke-linecap:round;stroke-linejoin:round;stroke-width:2px;fill:none" d="M9.369 0H0"/>
        <path data-name="선 37" transform="translate(16.923 28.462)" style="stroke:#b8b8b8;stroke-linecap:round;stroke-linejoin:round;stroke-width:2px;fill:none" d="M5.523 0H0"/>
        <path data-name="선 38" transform="translate(16.923 34.615)" style="stroke:#b8b8b8;stroke-linecap:round;stroke-linejoin:round;stroke-width:2px;fill:none" d="M1.177 0H0"/>
        <path data-name="패스 760" d="m182.558 194.728 1.632-4.9 10.879-10.879 2.72-2.72a2.308 2.308 0 1 1 3.264 3.264l-13.6 13.6z" transform="translate(-162.497 -156.266)" style="stroke:#b8b8b8;stroke-linecap:round;stroke-linejoin:round;stroke-width:2px;fill:none"/>
        <path data-name="선 39" transform="translate(33.116 22.144)" style="stroke:#b8b8b8;stroke-linecap:round;stroke-linejoin:round;stroke-width:2px;fill:none" d="M3.038 3.241 0 0"/>
    </g>
</svg>
