<svg data-name="Icons / Security / ic-security-alarm" xmlns="http://www.w3.org/2000/svg" width="24" height="24" viewBox="0 0 24 24">
    <path data-name="사각형 350" style="fill:none" d="M0 0h24v24H0z"/>
    <path data-name="패스 315" d="M6 18v-6a6 6 0 0 1 6-6h0a6 6 0 0 1 6 6v6" style="fill-rule:evenodd;stroke:#f21c1c;stroke-linecap:round;stroke-linejoin:round;stroke-width:1.5px;fill:none" transform="translate(-.006)"/>
    <path data-name="선 414" transform="translate(11.994 2)" style="stroke:#f21c1c;stroke-linecap:round;stroke-linejoin:round;stroke-width:1.5px;fill:none" d="M0 0v2"/>
    <path data-name="선 415" transform="translate(5.284 3.29)" style="stroke:#f21c1c;stroke-linecap:round;stroke-linejoin:round;stroke-width:1.5px;fill:none" d="m0 0 1.42 1.42"/>
    <path data-name="선 416" transform="translate(17.284 3.29)" style="stroke:#f21c1c;stroke-linecap:round;stroke-linejoin:round;stroke-width:1.5px;fill:none" d="M1.42 0 0 1.42"/>
    <path data-name="선 417" transform="translate(2.074 7.6)" style="stroke:#f21c1c;stroke-linecap:round;stroke-linejoin:round;stroke-width:1.5px;fill:none" d="m0 0 1.84.8"/>
    <path data-name="선 418" transform="translate(20.064 7.63)" style="stroke:#f21c1c;stroke-linecap:round;stroke-linejoin:round;stroke-width:1.5px;fill:none" d="M1.86 0 0 .74"/>
    <path data-name="패스 316" d="M21.74 22H2.26a.2.2 0 0 1-.2-.25l.18-.75a4 4 0 0 1 3.88-3h11.76a4 4 0 0 1 3.88 3l.18.72a.2.2 0 0 1-.2.28z" style="fill-rule:evenodd;stroke:#f21c1c;stroke-linecap:round;stroke-linejoin:round;stroke-width:1.5px;fill:none" transform="translate(-.006)"/>
</svg>
