<svg xmlns="http://www.w3.org/2000/svg" width="15" height="17.6" viewBox="0 0 15 17.6">
    <path data-name="빼기 1" d="M-5794.4-29.4a.6.6 0 0 1-.447-.2h.894a.6.6 0 0 1-.447.2zm-9 0a.6.6 0 0 1-.6-.6v-2.3c0-2.372 2.288-4.3 5.1-4.3a5.482 5.482 0 0 1 2.95.852 4.757 4.757 0 0 1 1.85 2.148h-1.352a3.552 3.552 0 0 0-.665-.775 4.21 4.21 0 0 0-2.783-1.025c-2.15 0-3.9 1.391-3.9 3.1v2.3a.6.6 0 0 1-.6.6z" transform="translate(5806.4 36.6)" style="fill:#292929"/>
    <path data-name="패스 332" d="M3 1.2A1.8 1.8 0 0 0 1.2 3v5A1.8 1.8 0 0 0 3 9.8h9A1.8 1.8 0 0 0 13.8 8V3A1.8 1.8 0 0 0 12 1.2H3M3 0h9a3 3 0 0 1 3 3v5a3 3 0 0 1-3 3H3a3 3 0 0 1-3-3V3a3 3 0 0 1 3-3z" transform="translate(0 6.6)" style="fill:#292929"/>
    <path data-name="패스 331" d="M1.5 0A1.5 1.5 0 1 1 0 1.5 1.5 1.5 0 0 1 1.5 0z" transform="translate(6 9.6)" style="fill:#292929"/>
    <path data-name="패스 330" d="M0 0h1v2H0z" transform="translate(7 11.6)" style="fill:#292929"/>
</svg>
