<svg xmlns="http://www.w3.org/2000/svg" width="174.754" height="39.066" viewBox="0 0 174.754 39.066">
    <defs>
        <clipPath id="3aqhdah1za">
            <path data-name="사각형 14" style="fill:#c9c9c9" d="M0 0h174.754v39.066H0z"/>
        </clipPath>
    </defs>
    <path data-name="패스 332" d="M14.293 33.416v-7.159l4.188-2.773 4.068 2.716v7.061l-4.084 2.48zm3.2-17.869-.152-3.583-3.257-1.719 4.22-7.122 4.714 7.987-2.883 1.5-.235 3.024 1.585.125.168-2.148 6.1-3.169L31.61 12.8l-.756 4.727-5.7 2.96-3.86-2.223.114-1.463-1.585-.121-.19 2.46 5.48 3.16 3.453-1.8 5.2 8.818H24.14v-3.97l-5.655-3.772L12.7 25.4v3.917H2.79l4.88-8.242 3.943 1.825 6.06-3.2-.126-2.989-1.589.069.084 1.982-4.477 2.365-7.25-3.34L4.1 12.3l5.121-2.825 6.574 3.467.113 2.672zM18.311 0 12.68 9.5 9.2 7.668l-6.721 3.713.282 7.437 3.458 1.592L0 30.911h12.7v3.44l5.8 3.227 5.641-3.426v-3.241h12.411l-6.575-11.142 2.319-1.2 1.054-6.57-5.534-3.379-3.382 1.756z" style="fill:#c9c9c9"/>
    <g data-name="그룹 5">
        <g data-name="그룹 4" style="clip-path:url(#3aqhdah1za)">
            <path data-name="패스 333" d="M90.817 25.415c-1.148-.789-.571-2.361-.716-3.509 1-1.72 3.223-.574 4.794-1.147a2.743 2.743 0 0 0 1.724-2.859c-.072-.791-.5-1.576-1.217-1.649a28.342 28.342 0 0 0-8.523.359c-2.006 1.075-1.648 3.793-.645 5.442a29.883 29.883 0 0 1-.071 4.367 2.857 2.857 0 0 0 2.437 3.363 17.606 17.606 0 0 0 6.661-.859.58.58 0 0 0 .284-.29c.073-.071.143.075.143.075 1-.574 1.573-2.219.571-3.081-1.789-.354-3.65.074-5.439-.211m16.615-10.959a1.754 1.754 0 0 0-1.222-.139 3.083 3.083 0 0 0-1.145.425c-.859.575-.714 1.647-1.289 2.506-.216.433-.785.433-1.287.506-.5-1.291-1.363-3.227-3.079-2.723-.93.286-1.362 1.289-1.647 2.146a3.254 3.254 0 0 0 .071 1.863 12.111 12.111 0 0 0 .646 1.435c.283 1.071.354 2.075.571 3.149.144 1.214.144 2.361.283 3.506.076.858-.068 1.722-.068 2.577a12.8 12.8 0 0 1-.071 1.65 7.146 7.146 0 0 0-.432 2.148 4.236 4.236 0 0 0 .361.855c.071.074.142 0 .142-.071a1.252 1.252 0 0 0 1.36.718 2.7 2.7 0 0 0 1.285-3.366 4.859 4.859 0 0 1-.426-2.007 27.8 27.8 0 0 1 .426-6.87 2.683 2.683 0 0 1 .577-1.078 1.284 1.284 0 0 1 1.574-.07.934.934 0 0 1 .428.716 16.8 16.8 0 0 1 .289 3.795 21.914 21.914 0 0 1-.574 6.087.559.559 0 0 0 .145.573c-.145.068-.073.214-.073.285a2.042 2.042 0 0 0 1.72 1.65A1.872 1.872 0 0 0 107.86 33c.143-4.23 0-8.45.429-12.748l.212-1.717c.146-1.434.288-3.222-1.069-4.082m8.341 9.953c.073.217.073.5.145.717 1.217 3.147 5.441 3.368 8.09 1.789a2.258 2.258 0 0 0 1-1.5 6.54 6.54 0 0 0 .142-3.509h.787c.073 0 .073-.146.144-.146a.846.846 0 0 0 .861-.215 2.678 2.678 0 0 0 0-2.22c-.5-.93-1.65-1.147-2.65-1.287-.86-.142-.787-1.36-1.076-2.079-.357-1-1.715-.929-2.719-.929 0 .074 0 .143-.073.143 0-.07-.07-.07-.145-.07-.284.213-.571.284-.79.571a8.707 8.707 0 0 0-.641 1.717 1.45 1.45 0 0 1-.931 1c-1 .284-2-.144-3.011.143a2.06 2.06 0 0 0-1.289 1.147 2.228 2.228 0 0 0 .216 2 2.373 2.373 0 0 0 2.292.431c.075.788-.5 1.5-.357 2.29m4.633-1.985c1.678-.45 2.625 1.83 1.895 2.544s-2.97.752-2.949-.733a1.783 1.783 0 0 1 1.054-1.811m16.706-3.6c-.715-.432-1.649-.219-2.365-.72-.282-.211-.5-.426-.428-.715.074-.57.5-1.145.357-1.793a1.174 1.174 0 0 0-.5-.709 3.317 3.317 0 0 0-3.362-.148 2.377 2.377 0 0 0-.933 2.65 20.724 20.724 0 0 1 .635 6.565c-.087 1.342-.753 3.6.866 4.316a1.918 1.918 0 0 0 1.431 0 1.633 1.633 0 0 0 .717-.86c.357-1.213-.214-2.429 0-3.645a1.132 1.132 0 0 1 .574-.936c.932-.428 2-.213 2.935-.713a1.737 1.737 0 0 0 .5-.5 2.819 2.819 0 0 0 .147-1.864 1.318 1.318 0 0 0-.576-.926m-3.152 11.689a411.86 411.86 0 0 0-2.95-.026c-1.74-.008-3.475 0-5.214 0l-2.614-.017c-.4 0-.8-.086-1.206-.086-.634 0-1.294.458-1.5-.4a4.24 4.24 0 0 0-.4-.974c-.141-.283-.5-.427-.716-.57a1.812 1.812 0 0 0-1.28.073 5.2 5.2 0 0 0-1.173.432c-.133.13-.3.234-.421.37-.045.046-.231.186-.283.229a6.9 6.9 0 0 0-.431.965c-.085.165.059.632.076.691a3.527 3.527 0 0 1 .078.387c.287.5.786.792 1 1.29a8.165 8.165 0 0 0 1 1.22 1.954 1.954 0 0 0 1.147.5c.217.006.437.006.656 0a2.861 2.861 0 0 0 .831-.085 9.916 9.916 0 0 1 1.172-.271 22.883 22.883 0 0 1 2.455-.283c.463-.034.934 0 1.4-.034a6.211 6.211 0 0 1 1.289-.123 27.344 27.344 0 0 0 3.131.168c.473.014.942.016 1.414.055a5.2 5.2 0 0 0 1.468.014 2.168 2.168 0 0 0 .6-.237 2.9 2.9 0 0 0 .826-.772 4.7 4.7 0 0 0 .326-.468 2.85 2.85 0 0 0 .131-.266l.036-.069a1.227 1.227 0 0 0 .075-.225 3.491 3.491 0 0 0 .076-.444.958.958 0 0 0-.189-.757 1.135 1.135 0 0 0-.808-.288m12.858-4.531a6.025 6.025 0 0 0 4.44-.931 4.774 4.774 0 0 0 2.075-3.006 5.4 5.4 0 0 0-1-4.656 4.755 4.755 0 0 0-2.428-1.78c-2.651-.784-6.017.293-7.016 2.869-1.146 2.937.57 7.091 3.939 7.518m.659-6.8a2 2 0 0 1 2.369 1.913c-.022.881-.538 1.463-1.784 1.422s-1.919-.541-1.852-1.811a1.651 1.651 0 0 1 1.268-1.524m15.732-1.287a4.463 4.463 0 0 1-.928-.29 1.46 1.46 0 0 1-.505-.642c-.14-.286-.14-.575-.281-.861a2.174 2.174 0 0 0-2.3-1.289 4.435 4.435 0 0 0-1.791 1 1.992 1.992 0 0 0-.713 1c-.359 1.216.5 2.287.93 3.364a8.05 8.05 0 0 1 0 4.513 2.557 2.557 0 0 0 .216 1.645c.284.571.928.5 1.5.5 0-.073 0-.148.072-.148.643.148 1.145-.5 1.5-.928.284-.43.284-1.072.716-1.292s1 0 1.573-.071a.852.852 0 0 0 .5-.5c.5-.932-.718-1.576-1.574-1.792-.144-.071-.36-.287-.36-.431a4.18 4.18 0 0 1 .145-.93c.071-.146.215-.146.286-.215a5.57 5.57 0 0 0 1.576-.357c.427-.286.933-.787.644-1.358a1.225 1.225 0 0 0-1.219-.932m-1.359 13.174a7.8 7.8 0 0 0 .072-1.289zm-.574-3.15a2.471 2.471 0 0 0-1.428-.284 74.133 74.133 0 0 0-14.4.211 2.714 2.714 0 0 0-2.152 1.146 1.2 1.2 0 0 0 .5 1.649 4.756 4.756 0 0 0 2.223.214 78.127 78.127 0 0 1 10.738-1c1.435.855.571 2.647.934 4.076a1.581 1.581 0 0 0 2.65.645c1.5-1.293 1.5-3.436 1.574-5.229a2.042 2.042 0 0 0-.646-1.429m17.873-10.265a15.94 15.94 0 0 0-1.218-3 2.631 2.631 0 0 0-3.917-.065c-2.864 2.506-4.512 5.8-6.233 9.094a1.788 1.788 0 0 0-.212 1.213 2.475 2.475 0 0 0 3.008 1.793 1.113 1.113 0 0 0 .857-.718c.072-.211.215-.427.285-.642a6.239 6.239 0 0 1 .359-1.22 17.518 17.518 0 0 1 2.795-4.367c.641.069.931.716 1.213 1.219.718 1.643.5 3.507 1.15 5.225a3.438 3.438 0 0 0 1.074 1.575 1.4 1.4 0 0 0 1.5 0 3.565 3.565 0 0 0 1.649-3.075c-.287-2.51-1.506-4.655-2.288-7.022m9.982-.922c-.071-.787.427-1.507.287-2.29a1.63 1.63 0 0 0-1.148-1.364 3.561 3.561 0 0 0-4.223 2.651 2.43 2.43 0 0 0 .645 2.364q.422 2.145.644 4.3c.217 2.936-.362 5.87-.284 8.8 0 1.866 2.88 2.07 3.794.792.358-.5.139-1.147.139-1.721a51.91 51.91 0 0 1-.068-8.161c.207-1.56 1.817-.924 2.854-1.184 1.209-.3 1.364-1.725 1.155-2.755-.348-1.746-3.543.067-3.8-1.433m20.348 9.97a10.419 10.419 0 0 0-2.474-.308c-.358-.021-.719-.032-1.07-.076a1.224 1.224 0 0 1-.607-.175c-.313-.245.309-.73.47-.871a13.322 13.322 0 0 0 1.563-1.534 2.662 2.662 0 0 0 .648-1.79 6.437 6.437 0 0 0-.473-1.721c-.161-.5-.912-.193-.664-.684.279-.549 1.894-.159 1.941-2.156-.091-.031-.1-.052-.081-.144a.383.383 0 0 0-.075-.28.581.581 0 0 0-.142-.227c-.093-.078-.215-.108-.314-.185-.078-.057-.135-.15-.223-.191a1.771 1.771 0 0 0-.35-.1.6.6 0 0 0-.33 0 1.14 1.14 0 0 1-.424.038 3.468 3.468 0 0 0-.488-.009 3.541 3.541 0 0 1-.568-.019c-.089 0-.181.028-.273.019a.522.522 0 0 1-.212-.077c-.045-.03-.164-.053-.164-.122-.01-.177-.217-.347-.33-.464a.821.821 0 0 1-.152-.363 1.254 1.254 0 0 0-.231-.346c-.078-.091-.155-.188-.237-.28a2.528 2.528 0 0 0-.407-.31c-.1-.075-.2-.134-.3-.207-.053-.037-.2-.169-.269-.106s0 .179-.139.146c-.046-.011-.129-.06-.133-.113s.063-.091.111-.106a3.884 3.884 0 0 0-1.339-.143c.085.014.172.068.075.143s-.2-.034-.295-.06-.193.074-.277.123-.141.055-.159.138a.539.539 0 0 1-.175.269c-.017-.042-.04-.179-.111-.108.02.023.046.042.065.066a.429.429 0 0 0-.29.256c-.052.127-.076.26-.138.387-.023-.023-.045-.048-.068-.067a1.424 1.424 0 0 0-.071.158 1.442 1.442 0 0 0-.063.728.751.751 0 0 1-.1.541.469.469 0 0 1-.363.1 2.251 2.251 0 0 1-.437-.031 5.956 5.956 0 0 0-1.288.008 1.9 1.9 0 0 0-.66.125 2.024 2.024 0 0 0-.5.338.772.772 0 0 0-.305.527 1.863 1.863 0 0 1-.081.51c.014.086.026.175.044.26a1.735 1.735 0 0 0 .143.424.969.969 0 0 0 .3.321c-.025.073.123.157.014.213.085.055.17.115.252.172a.8.8 0 0 0 .514.194c.221.006.437.046.658.064-.046-.058-.077-.123.012-.142s.127.06.137.137a1.106 1.106 0 0 1 .141-.035 1.063 1.063 0 0 1 .5-.064c.155.046.041.178-.024.25-.183.189-.389.351-.56.549a2.22 2.22 0 0 0-.406.74 3.169 3.169 0 0 0-.263 1.577 1.689 1.689 0 0 0 .775 1.148 4.5 4.5 0 0 1 .531.328 1.238 1.238 0 0 1 .3.425c.027-.037.041-.078.067-.11a1.253 1.253 0 0 1 .148.272c.036-.015.069-.037.109-.052a4.872 4.872 0 0 1 .4.726 1 1 0 0 1 .1.643.892.892 0 0 1-.425.5 4.279 4.279 0 0 1-.9.384c-.374.127-.754.249-1.121.4a2.522 2.522 0 0 0-1.551 1.205 1.363 1.363 0 0 0 .575 1.493 3.14 3.14 0 0 0 2.058.6 8.112 8.112 0 0 0 2.326-.54 8.78 8.78 0 0 1 2.338-.515 10.256 10.256 0 0 1 2.478.267 8.44 8.44 0 0 0 2.36.248 2.708 2.708 0 0 0 1.744-.783 1.645 1.645 0 0 0 .5-1.484 1.733 1.733 0 0 0-1.3-1.067m-4.352-4.257a1.355 1.355 0 0 1-1.18 1.1c-.3.021-1.789.106-1.614-1.376s1.376-1.1 1.376-1.1c.75-.022 1.571.562 1.418 1.376m11.573-6.201a3.5 3.5 0 0 0-.5-1.431c-.642-.715-1.074-1.577-2-1.933a1.475 1.475 0 0 0-1.648.715 3.95 3.95 0 0 0-.858 3.292 1.6 1.6 0 0 0 .713 1.289 25.271 25.271 0 0 1 .072 11.818 6.48 6.48 0 0 0-.573 2.575c.36 1.5 2.294 1.862 3.51 1.075a2.707 2.707 0 0 0 1.073-2.077c.073-2.434-.069-4.869-.143-7.305a52.139 52.139 0 0 1 .216-6.655 8.1 8.1 0 0 0 .146-1.363" transform="translate(-41.962 -6.292)" style="fill:#c9c9c9"/>
            <path data-name="패스 334" d="M85.425 70.293v-6.317h.717v3.19l2.22-3.19h.912l-2.02 2.652 2.084 3.665h-.9L86.8 67.3l-.654.817v2.18z" transform="translate(-41.962 -31.426)" style="fill:#c9c9c9"/>
            <path data-name="패스 335" d="M93.392 66.9a5.2 5.2 0 0 1 .359-2.155 1.709 1.709 0 0 1 1.669-1.035 1.879 1.879 0 0 1 1.4.518 2.552 2.552 0 0 1 .608 1.249 6.872 6.872 0 0 1 .14 1.5 11.065 11.065 0 0 1-.054 1.359 2.54 2.54 0 0 1-.522 1.345 1.866 1.866 0 0 1-1.513.612 1.835 1.835 0 0 1-1.387-.525 2.675 2.675 0 0 1-.577-1.289 8.673 8.673 0 0 1-.117-1.575m.749-.031a10.332 10.332 0 0 0 .054 1.265 2.4 2.4 0 0 0 .359 1.073 1.063 1.063 0 0 0 .928.453 1.183 1.183 0 0 0 1.2-1 8.057 8.057 0 0 0 .132-1.789 4.907 4.907 0 0 0-.24-1.775 1.164 1.164 0 0 0-1.169-.764 1.006 1.006 0 0 0-.9.5 4.03 4.03 0 0 0-.374 2.029" transform="translate(-45.876 -31.296)" style="fill:#c9c9c9"/>
            <path data-name="패스 336" d="M103.123 70.294v-6.317h1.863a2.184 2.184 0 0 1 1.24.318 1.425 1.425 0 0 1 .616 1.271 1.629 1.629 0 0 1-.367 1.107 1.239 1.239 0 0 1-.811.43l.538.142a.879.879 0 0 1 .444.653l.125 1.337c.078.572.188.858.327.858v.2h-.837a2.15 2.15 0 0 1-.142-.565 6.992 6.992 0 0 1-.057-.987q0-1.24-.982-1.241h-1.24v2.793zm.716-3.453h1.022a1.211 1.211 0 0 0 .951-.342 1.3 1.3 0 0 0 .249-.859.88.88 0 0 0-.316-.763 1.56 1.56 0 0 0-.932-.231h-.975z" transform="translate(-50.656 -31.426)" style="fill:#c9c9c9"/>
            <path data-name="패스 337" d="M112.085 70.294v-6.317h3.2v.668H112.8v1.988h2.284v.661H112.8v2.338h2.409v.661z" transform="translate(-55.058 -31.426)" style="fill:#c9c9c9"/>
            <path data-name="패스 338" d="m118.506 70.294 1.754-6.317h.982l1.692 6.317h-.792l-.45-1.8h-1.958l-.45 1.8zm2.994-2.458-.787-3.271-.771 3.271z" transform="translate(-58.212 -31.426)" style="fill:#c9c9c9"/>
            <path data-name="패스 339" d="M127.852 70.294v-6.317h1.176l1.942 5.723.009-5.722h.717v6.317h-1.177L128.57 64.5v5.792z" transform="translate(-62.803 -31.426)" style="fill:#c9c9c9"/>
            <path data-name="패스 340" d="M141.475 70.295v-6.317h1.761a2.1 2.1 0 0 1 1.264.326 1.764 1.764 0 0 1 .631 1.536 1.863 1.863 0 0 1-.39 1.265 1.823 1.823 0 0 1-1.442.525h-1.108v2.666zm.716-3.357h.975a1.274 1.274 0 0 0 .893-.267 1.252 1.252 0 0 0 .284-.936q0-1.065-1.107-1.066h-1.045z" transform="translate(-69.495 -31.427)" style="fill:#c9c9c9"/>
            <path data-name="패스 341" d="M149.549 70.294v-6.317h.648v2.594h2.424v-2.594h.647v6.317h-.647v-3.056H150.2v3.055z" transform="translate(-73.461 -31.426)" style="fill:#c9c9c9"/>
            <path data-name="패스 342" d="m157.762 70.294 1.754-6.317h.982l1.692 6.317h-.79l-.449-1.8h-1.961l-.45 1.8zm2.994-2.458-.787-3.271-.771 3.271z" transform="translate(-77.495 -31.426)" style="fill:#c9c9c9"/>
            <path data-name="패스 343" d="M167.369 70.294v-6.317h1.864a2.182 2.182 0 0 1 1.239.318 1.425 1.425 0 0 1 .617 1.271 1.629 1.629 0 0 1-.367 1.107 1.237 1.237 0 0 1-.81.43l.538.142a.877.877 0 0 1 .444.653l.125 1.337q.119.859.328.858v.2h-.837a2.154 2.154 0 0 1-.142-.565 6.982 6.982 0 0 1-.057-.987q0-1.24-.981-1.241h-1.24v2.793zm.717-3.453h1.022a1.21 1.21 0 0 0 .951-.342 1.3 1.3 0 0 0 .249-.859.88.88 0 0 0-.315-.763 1.56 1.56 0 0 0-.932-.231h-.975z" transform="translate(-82.214 -31.426)" style="fill:#c9c9c9"/>
            <path data-name="패스 344" d="M176.334 70.294v-6.317h1.308l1.3 5.376 1.3-5.376h1.231v6.317h-.647v-5.919l-1.5 5.919h-.78l-1.5-5.919v5.919z" transform="translate(-86.618 -31.426)" style="fill:#c9c9c9"/>
            <path data-name="패스 345" d="m187.227 70.294 1.755-6.317h.981l1.692 6.317h-.791l-.45-1.8h-1.958l-.45 1.8zm2.995-2.458-.788-3.271-.77 3.271z" transform="translate(-91.969 -31.426)" style="fill:#c9c9c9"/>
            <path data-name="패스 346" d="M196.192 67.038a8.5 8.5 0 0 1 .109-1.52 2.973 2.973 0 0 1 .546-1.359 1.542 1.542 0 0 1 1.278-.589 1.834 1.834 0 0 1 1.318.446A2.239 2.239 0 0 1 200 65.7h-.671a1.905 1.905 0 0 0-.2-.978 1.053 1.053 0 0 0-.99-.485.92.92 0 0 0-.878.632 5.79 5.79 0 0 0-.276 2.113 6.282 6.282 0 0 0 .173 1.734 1.013 1.013 0 0 0 1 .835.939.939 0 0 0 .856-.494 2.632 2.632 0 0 0 .259-1.288H200a3.15 3.15 0 0 1-.407 1.75 1.83 1.83 0 0 1-3.03-.207 5.374 5.374 0 0 1-.367-2.275" transform="translate(-96.373 -31.227)" style="fill:#c9c9c9"/>
            <path data-name="패스 347" d="M204.909 70.294v-6.317h3.2v.668h-2.479v1.988h2.284v.661h-2.284v2.338h2.41v.661z" transform="translate(-100.655 -31.426)" style="fill:#c9c9c9"/>
            <path data-name="패스 348" d="M212.464 63.977h.717v4.518a1.342 1.342 0 0 0 .32 1.01 1.2 1.2 0 0 0 .858.263 1.073 1.073 0 0 0 .887-.346 1.665 1.665 0 0 0 .281-1.062v-4.383h.718v4.781a1.557 1.557 0 0 1-1.817 1.67 2.046 2.046 0 0 1-1.6-.516 2.151 2.151 0 0 1-.366-1.416z" transform="translate(-104.366 -31.426)" style="fill:#c9c9c9"/>
            <path data-name="패스 349" d="M220.554 63.977h3.905v.732h-1.566v5.584h-.717v-5.584h-1.623z" transform="translate(-108.34 -31.426)" style="fill:#c9c9c9"/>
            <path data-name="사각형 11" transform="translate(116.643 32.55)" style="fill:#c9c9c9" d="M0 0h.716v6.317H0z"/>
            <path data-name="패스 350" d="M232.322 67.038a8.539 8.539 0 0 1 .109-1.52 2.973 2.973 0 0 1 .545-1.359 1.547 1.547 0 0 1 1.279-.589 1.835 1.835 0 0 1 1.318.446 2.234 2.234 0 0 1 .552 1.686h-.669a1.91 1.91 0 0 0-.2-.978 1.056 1.056 0 0 0-.99-.485.916.916 0 0 0-.877.632 5.739 5.739 0 0 0-.278 2.113 6.258 6.258 0 0 0 .173 1.734 1.011 1.011 0 0 0 1 .835.935.935 0 0 0 .856-.494 2.615 2.615 0 0 0 .259-1.288h.725a3.159 3.159 0 0 1-.406 1.75 1.829 1.829 0 0 1-3.029-.207 5.38 5.38 0 0 1-.368-2.275" transform="translate(-114.121 -31.227)" style="fill:#c9c9c9"/>
            <path data-name="패스 351" d="m240.029 70.294 1.753-6.317h.983l1.692 6.317h-.792l-.45-1.8h-1.959l-.45 1.8zm2.994-2.458-.786-3.271-.771 3.271z" transform="translate(-117.906 -31.426)" style="fill:#c9c9c9"/>
            <path data-name="패스 352" d="M249.5 70.294v-6.317h.717v5.656h2.55v.661z" transform="translate(-122.558 -31.426)" style="fill:#c9c9c9"/>
            <path data-name="패스 353" d="m259.932 70.294 1.754-6.317h.982l1.692 6.317h-.792l-.449-1.8h-1.959l-.451 1.8zm2.995-2.458-.787-3.271-.771 3.271z" transform="translate(-127.683 -31.426)" style="fill:#c9c9c9"/>
            <path data-name="패스 354" d="M268.9 68.163h.686a2.757 2.757 0 0 0 .132 1.05 1.054 1.054 0 0 0 1.069.542 1.133 1.133 0 0 0 .821-.29 1.114 1.114 0 0 0 .3-.837v-.166a1.013 1.013 0 0 0-.087-.476 1.123 1.123 0 0 0-.531-.42l-.664-.254-.793-.292a1.42 1.42 0 0 1-.724-.692 1.719 1.719 0 0 1-.149-.717 2 2 0 0 1 .3-1.139 1.663 1.663 0 0 1 1.465-.637 1.616 1.616 0 0 1 1.512.7 2.177 2.177 0 0 1 .242 1.1h-.717a1.149 1.149 0 0 0-.285-.844 1.121 1.121 0 0 0-1.547.048 1.058 1.058 0 0 0-.258.732q0 .582.772.907l1.451.565a1.508 1.508 0 0 1 .78 1.384 2 2 0 0 1-.581 1.573 1.892 1.892 0 0 1-1.287.422 1.994 1.994 0 0 1-1.372-.414 2.437 2.437 0 0 1-.538-1.846" transform="translate(-132.087 -31.357)" style="fill:#c9c9c9"/>
            <path data-name="패스 355" d="M277.232 68.163h.686a2.71 2.71 0 0 0 .133 1.05 1.049 1.049 0 0 0 1.067.542 1.135 1.135 0 0 0 .823-.29 1.109 1.109 0 0 0 .3-.837v-.166a1 1 0 0 0-.085-.476 1.128 1.128 0 0 0-.532-.42l-.663-.254-.793-.292a1.426 1.426 0 0 1-.725-.692 1.718 1.718 0 0 1-.148-.717 2.008 2.008 0 0 1 .3-1.139 1.664 1.664 0 0 1 1.466-.637 1.618 1.618 0 0 1 1.512.7 2.194 2.194 0 0 1 .241 1.1h-.714a1.153 1.153 0 0 0-.285-.844 1.122 1.122 0 0 0-1.548.048 1.052 1.052 0 0 0-.257.732q0 .582.772.907l1.449.565a1.509 1.509 0 0 1 .78 1.384 1.992 1.992 0 0 1-.583 1.573 1.886 1.886 0 0 1-1.286.422 1.989 1.989 0 0 1-1.371-.414 2.428 2.428 0 0 1-.539-1.846" transform="translate(-136.181 -31.357)" style="fill:#c9c9c9"/>
            <path data-name="패스 356" d="M285.7 66.9a5.179 5.179 0 0 1 .361-2.155 1.707 1.707 0 0 1 1.668-1.035 1.879 1.879 0 0 1 1.4.518 2.551 2.551 0 0 1 .608 1.249 6.935 6.935 0 0 1 .14 1.5 10.67 10.67 0 0 1-.056 1.359 2.524 2.524 0 0 1-.522 1.345 1.864 1.864 0 0 1-1.513.612 1.837 1.837 0 0 1-1.387-.525 2.68 2.68 0 0 1-.577-1.289 8.616 8.616 0 0 1-.122-1.579m.75-.031a10.41 10.41 0 0 0 .054 1.265 2.4 2.4 0 0 0 .359 1.073 1.063 1.063 0 0 0 .927.453 1.184 1.184 0 0 0 1.2-1 8.048 8.048 0 0 0 .133-1.789 4.893 4.893 0 0 0-.235-1.767 1.165 1.165 0 0 0-1.168-.764 1.007 1.007 0 0 0-.9.5 4.025 4.025 0 0 0-.374 2.029" transform="translate(-140.343 -31.296)" style="fill:#c9c9c9"/>
            <path data-name="패스 357" d="M294.793 67.038a8.445 8.445 0 0 1 .109-1.52 2.973 2.973 0 0 1 .545-1.359 1.545 1.545 0 0 1 1.278-.589 1.832 1.832 0 0 1 1.318.446 2.235 2.235 0 0 1 .557 1.684h-.67a1.911 1.911 0 0 0-.2-.978 1.057 1.057 0 0 0-.991-.485.917.917 0 0 0-.877.632 5.756 5.756 0 0 0-.277 2.113 6.258 6.258 0 0 0 .173 1.734 1.011 1.011 0 0 0 1 .835.936.936 0 0 0 .856-.494 2.615 2.615 0 0 0 .259-1.288h.724a3.159 3.159 0 0 1-.406 1.75 1.829 1.829 0 0 1-3.029-.207 5.363 5.363 0 0 1-.368-2.275" transform="translate(-144.807 -31.227)" style="fill:#c9c9c9"/>
            <path data-name="사각형 12" transform="translate(154.554 32.55)" style="fill:#c9c9c9" d="M0 0h.716v6.317H0z"/>
            <path data-name="패스 358" d="m306.206 70.294 1.755-6.317h.982l1.692 6.317h-.792l-.449-1.8h-1.959l-.449 1.8zm3-2.458-.788-3.271-.77 3.271z" transform="translate(-150.414 -31.426)" style="fill:#c9c9c9"/>
            <path data-name="패스 359" d="M314.544 63.977h3.905v.732h-1.568v5.584h-.716v-5.584h-1.621z" transform="translate(-154.509 -31.426)" style="fill:#c9c9c9"/>
            <path data-name="사각형 13" transform="translate(164.462 32.55)" style="fill:#c9c9c9" d="M0 0h.716v6.317H0z"/>
            <path data-name="패스 360" d="M326.448 66.9a5.208 5.208 0 0 1 .359-2.155 1.709 1.709 0 0 1 1.668-1.035 1.879 1.879 0 0 1 1.4.518 2.552 2.552 0 0 1 .608 1.249 6.871 6.871 0 0 1 .14 1.5 10.929 10.929 0 0 1-.055 1.359 2.524 2.524 0 0 1-.523 1.345 1.863 1.863 0 0 1-1.513.612 1.837 1.837 0 0 1-1.387-.525 2.68 2.68 0 0 1-.577-1.289 8.672 8.672 0 0 1-.117-1.575m.749-.031a10.439 10.439 0 0 0 .054 1.265 2.4 2.4 0 0 0 .359 1.073 1.063 1.063 0 0 0 .928.453 1.183 1.183 0 0 0 1.2-1 7.984 7.984 0 0 0 .133-1.789 4.932 4.932 0 0 0-.234-1.767 1.166 1.166 0 0 0-1.17-.764 1 1 0 0 0-.9.5 4.012 4.012 0 0 0-.374 2.029" transform="translate(-160.357 -31.296)" style="fill:#c9c9c9"/>
            <path data-name="패스 361" d="M335.918 70.294v-6.317h1.175l1.942 5.722.008-5.722h.719v6.317h-1.179l-1.949-5.794v5.792z" transform="translate(-165.009 -31.426)" style="fill:#c9c9c9"/>
        </g>
    </g>
</svg>
