<svg xmlns="http://www.w3.org/2000/svg" width="149.627" height="33.449" viewBox="0 0 149.627 33.449">
    <defs>
        <clipPath id="up8vfnopsa">
            <path data-name="사각형 14" style="fill:none" d="M0 0h149.627v33.449H0z"/>
        </clipPath>
    </defs>
    <path data-name="패스 332" d="M12.238 28.611v-6.129l3.586-2.375 3.483 2.324v6.046L15.81 30.6zm2.742-15.3-.13-3.068-2.788-1.471 3.614-6.1 4.037 6.838-2.469 1.282-.2 2.592 1.357.107.144-1.839 5.222-2.713 3.3 2.016L26.418 15l-4.883 2.534-3.305-1.9.1-1.252-1.357-.1-.163 2.107 4.693 2.7 2.957-1.535 4.456 7.55h-8.247V21.7l-4.842-3.23-4.95 3.278V25.1H2.389l4.179-7.057L9.944 19.6l5.188-2.738-.108-2.559-1.361.059.072 1.7L9.9 18.086l-6.207-2.86-.181-4.7 4.383-2.414 5.629 2.969.1 2.288zM15.678 0l-4.821 8.136L7.88 6.565l-5.757 3.18.242 6.368 2.961 1.364L0 26.467h10.877v2.946l4.962 2.763 4.83-2.933v-2.776H31.3l-5.629-9.54 1.982-1.027.9-5.626-4.737-2.894-2.9 1.5z" style="fill:#004284"/>
    <g data-name="그룹 5">
        <g data-name="그룹 4" style="clip-path:url(#up8vfnopsa)">
            <path data-name="패스 333" d="M90.042 23.6c-.983-.676-.489-2.021-.613-3 .859-1.472 2.76-.492 4.1-.982a2.349 2.349 0 0 0 1.475-2.451c-.062-.677-.431-1.35-1.042-1.412a24.266 24.266 0 0 0-7.3.308c-1.718.92-1.411 3.248-.552 4.659a25.586 25.586 0 0 1-.061 3.739 2.446 2.446 0 0 0 2.084 2.882 15.075 15.075 0 0 0 5.7-.735.5.5 0 0 0 .243-.248c.063-.061.123.064.123.064a1.711 1.711 0 0 0 .489-2.638c-1.532-.3-3.125.063-4.657-.181m14.226-9.383a1.5 1.5 0 0 0-1.046-.119 2.64 2.64 0 0 0-.98.364c-.736.492-.612 1.41-1.1 2.145-.185.371-.672.371-1.1.433-.43-1.105-1.167-2.763-2.636-2.331-.8.245-1.166 1.1-1.41 1.837a2.786 2.786 0 0 0 .061 1.595 10.368 10.368 0 0 0 .553 1.229c.242.917.3 1.777.489 2.7.124 1.039.124 2.022.243 3 .065.734-.058 1.474-.058 2.207a10.96 10.96 0 0 1-.061 1.413 6.119 6.119 0 0 0-.37 1.839 3.627 3.627 0 0 0 .309.732c.061.063.122 0 .122-.061a1.072 1.072 0 0 0 1.164.615 2.311 2.311 0 0 0 1.1-2.882 4.16 4.16 0 0 1-.365-1.719 23.8 23.8 0 0 1 .365-5.882 2.3 2.3 0 0 1 .494-.923 1.1 1.1 0 0 1 1.347-.06.8.8 0 0 1 .367.613 14.382 14.382 0 0 1 .255 3.248 18.763 18.763 0 0 1-.491 5.212.478.478 0 0 0 .124.491c-.124.058-.063.183-.063.244a1.749 1.749 0 0 0 1.471 1.411 1.6 1.6 0 0 0 1.6-1.472c.122-3.621 0-7.235.368-10.915l.182-1.47c.125-1.228.247-2.758-.915-3.5m7.142 8.522c.062.186.062.432.124.614 1.042 2.694 4.659 2.884 6.926 1.532a1.933 1.933 0 0 0 .859-1.285 5.6 5.6 0 0 0 .122-3h.674c.063 0 .063-.125.124-.125a.724.724 0 0 0 .737-.184 2.293 2.293 0 0 0 0-1.9 2.814 2.814 0 0 0-2.269-1.1c-.736-.122-.673-1.165-.921-1.78-.305-.859-1.468-.8-2.328-.8 0 .063 0 .123-.062.123 0-.06-.06-.06-.124-.06-.243.182-.489.244-.676.489a7.455 7.455 0 0 0-.548 1.47 1.241 1.241 0 0 1-.8.859c-.857.244-1.715-.124-2.578.122a1.764 1.764 0 0 0-1.1.982 1.908 1.908 0 0 0 .185 1.715 2.032 2.032 0 0 0 1.962.369c.064.675-.429 1.289-.305 1.961m3.967-1.7c1.437-.385 2.248 1.567 1.622 2.178s-2.543.644-2.525-.627a1.527 1.527 0 0 1 .9-1.551m14.3-3.079c-.613-.37-1.412-.187-2.025-.617-.241-.181-.428-.365-.367-.612.063-.488.43-.981.306-1.536a1 1 0 0 0-.428-.607 2.84 2.84 0 0 0-2.879-.126 2.035 2.035 0 0 0-.8 2.269 17.744 17.744 0 0 1 .544 5.621c-.074 1.149-.645 3.079.742 3.7a1.642 1.642 0 0 0 1.225 0 1.4 1.4 0 0 0 .614-.736c.306-1.039-.183-2.08 0-3.121a.97.97 0 0 1 .492-.8c.8-.366 1.715-.183 2.513-.611a1.487 1.487 0 0 0 .43-.429 2.413 2.413 0 0 0 .125-1.6 1.129 1.129 0 0 0-.494-.793m-2.7 10.008c-.839-.009-1.684-.019-2.526-.023-1.489-.007-2.976 0-4.465 0l-2.238-.014c-.347 0-.688-.074-1.033-.074-.543 0-1.108.392-1.288-.339a3.631 3.631 0 0 0-.345-.834c-.121-.243-.425-.365-.613-.488a1.552 1.552 0 0 0-1.1.062 4.454 4.454 0 0 0-1 .37c-.114.111-.255.2-.36.317-.038.039-.2.159-.243.2a5.9 5.9 0 0 0-.369.826c-.073.142.051.541.065.592a3.019 3.019 0 0 1 .067.332c.246.429.673.678.859 1.1a6.991 6.991 0 0 0 .857 1.045 1.673 1.673 0 0 0 .982.427h.562a2.45 2.45 0 0 0 .712-.073 8.49 8.49 0 0 1 1-.232 19.593 19.593 0 0 1 2.1-.243c.4-.029.8 0 1.2-.029a5.317 5.317 0 0 1 1.1-.105 23.412 23.412 0 0 0 2.681.144c.405.012.807.014 1.211.047a4.453 4.453 0 0 0 1.257.012 1.856 1.856 0 0 0 .514-.2 2.482 2.482 0 0 0 .707-.661 4.03 4.03 0 0 0 .279-.4 2.441 2.441 0 0 0 .112-.228l.03-.059a1.05 1.05 0 0 0 .064-.193 2.99 2.99 0 0 0 .065-.38.82.82 0 0 0-.162-.648.972.972 0 0 0-.692-.247m11.01-3.88a5.158 5.158 0 0 0 3.8-.8 4.087 4.087 0 0 0 1.777-2.574 4.625 4.625 0 0 0-.859-3.986 4.071 4.071 0 0 0-2.084-1.536c-2.27-.671-5.152.25-6.007 2.456-.981 2.514.488 6.071 3.373 6.437m.564-5.826a1.711 1.711 0 0 1 2.028 1.638c-.019.754-.46 1.252-1.528 1.218s-1.643-.464-1.586-1.551a1.414 1.414 0 0 1 1.086-1.3m13.474-1.1a3.821 3.821 0 0 1-.794-.248 1.25 1.25 0 0 1-.433-.549c-.12-.245-.12-.493-.24-.737a1.862 1.862 0 0 0-1.965-1.1 3.8 3.8 0 0 0-1.534.859 1.705 1.705 0 0 0-.61.86c-.308 1.042.427 1.959.8 2.88a6.892 6.892 0 0 1 0 3.864 2.19 2.19 0 0 0 .185 1.408c.243.489.795.43 1.286.43 0-.062 0-.126.061-.126.551.126.98-.427 1.289-.795.243-.368.243-.918.613-1.106s.856 0 1.347-.061a.73.73 0 0 0 .43-.426c.428-.8-.615-1.35-1.348-1.534-.123-.061-.308-.246-.308-.369a3.579 3.579 0 0 1 .124-.8c.061-.125.184-.125.245-.184a4.769 4.769 0 0 0 1.349-.306c.365-.245.8-.674.551-1.163a1.049 1.049 0 0 0-1.043-.8m-1.164 11.28a6.679 6.679 0 0 0 .061-1.1zm-.492-2.7a2.116 2.116 0 0 0-1.222-.243 63.474 63.474 0 0 0-12.325.181 2.323 2.323 0 0 0-1.843.981 1.031 1.031 0 0 0 .43 1.412 4.073 4.073 0 0 0 1.9.183 66.893 66.893 0 0 1 9.194-.856c1.229.732.489 2.267.8 3.49a1.354 1.354 0 0 0 2.269.552c1.286-1.107 1.286-2.942 1.347-4.477a1.748 1.748 0 0 0-.553-1.223m15.3-8.789a13.648 13.648 0 0 0-1.043-2.571 2.252 2.252 0 0 0-3.372-.063c-2.453 2.146-3.864 4.968-5.337 7.787a1.531 1.531 0 0 0-.181 1.039 2.119 2.119 0 0 0 2.575 1.536.953.953 0 0 0 .734-.615c.062-.18.184-.365.244-.549a5.341 5.341 0 0 1 .308-1.044A15 15 0 0 1 162 18.738c.549.059.8.613 1.039 1.044.615 1.407.429 3 .985 4.474a2.944 2.944 0 0 0 .919 1.349 1.2 1.2 0 0 0 1.284 0 3.052 3.052 0 0 0 1.412-2.633c-.246-2.149-1.289-3.986-1.959-6.013m8.547-.789c-.061-.674.365-1.29.246-1.961a1.4 1.4 0 0 0-.983-1.168 3.049 3.049 0 0 0-3.616 2.27 2.081 2.081 0 0 0 .552 2.024q.361 1.837.551 3.681c.186 2.514-.31 5.026-.244 7.538 0 1.6 2.466 1.773 3.248.678.307-.43.119-.982.119-1.474a44.445 44.445 0 0 1-.058-6.987c.177-1.336 1.556-.792 2.443-1.014 1.035-.255 1.167-1.477.989-2.359-.3-1.495-3.034.057-3.249-1.227m17.422 8.537a8.921 8.921 0 0 0-2.118-.264c-.307-.018-.616-.027-.917-.065a1.048 1.048 0 0 1-.52-.149c-.268-.21.264-.625.4-.746a11.407 11.407 0 0 0 1.338-1.313 2.279 2.279 0 0 0 .555-1.533 5.51 5.51 0 0 0-.4-1.473c-.138-.429-.781-.166-.569-.585.239-.47 1.622-.136 1.662-1.846-.078-.026-.086-.045-.069-.124a.328.328 0 0 0-.064-.24.5.5 0 0 0-.122-.194c-.08-.067-.184-.092-.269-.159-.067-.049-.115-.129-.191-.163a1.516 1.516 0 0 0-.3-.084.511.511 0 0 0-.283 0 .976.976 0 0 1-.363.032 2.969 2.969 0 0 0-.418-.008 3.032 3.032 0 0 1-.486-.016c-.076 0-.155.024-.234.016a.447.447 0 0 1-.181-.066c-.038-.026-.141-.046-.141-.1-.009-.152-.186-.3-.282-.4a.7.7 0 0 1-.13-.311 1.074 1.074 0 0 0-.2-.3c-.067-.078-.133-.161-.2-.24a2.165 2.165 0 0 0-.349-.266c-.084-.064-.173-.115-.255-.177-.046-.031-.169-.145-.23-.091s0 .153-.119.125c-.039-.009-.111-.051-.114-.1s.054-.078.1-.091a3.325 3.325 0 0 0-1.147-.123c.073.012.147.058.064.123s-.167-.029-.252-.051-.165.064-.237.105-.121.047-.136.118a.461.461 0 0 1-.15.23c-.015-.036-.034-.153-.1-.092.017.02.039.036.055.057a.367.367 0 0 0-.248.22c-.045.109-.065.223-.118.332-.02-.02-.038-.041-.058-.057a1.217 1.217 0 0 0-.061.135 1.234 1.234 0 0 0-.054.623.643.643 0 0 1-.084.464.4.4 0 0 1-.311.087 1.927 1.927 0 0 1-.374-.027 5.1 5.1 0 0 0-1.1.007 1.624 1.624 0 0 0-.565.107 1.733 1.733 0 0 0-.427.29.661.661 0 0 0-.261.451 1.6 1.6 0 0 1-.069.437c.012.074.022.149.037.223a1.486 1.486 0 0 0 .123.363.83.83 0 0 0 .259.274c-.022.062.105.135.012.183.073.047.146.1.216.147a.682.682 0 0 0 .44.166c.189.005.374.04.563.055-.04-.05-.066-.1.01-.122s.109.051.117.118a.947.947 0 0 1 .121-.03.91.91 0 0 1 .43-.054c.132.039.035.152-.02.214-.157.162-.333.3-.48.47a1.9 1.9 0 0 0-.348.634 2.714 2.714 0 0 0-.225 1.35 1.446 1.446 0 0 0 .663.983 3.852 3.852 0 0 1 .455.281 1.06 1.06 0 0 1 .26.364c.023-.031.035-.067.057-.095a1.073 1.073 0 0 1 .126.233c.031-.013.059-.031.094-.044a4.173 4.173 0 0 1 .34.621.852.852 0 0 1 .084.551.764.764 0 0 1-.364.428 3.663 3.663 0 0 1-.768.329c-.321.109-.645.213-.96.34a2.159 2.159 0 0 0-1.328 1.032 1.167 1.167 0 0 0 .493 1.278 2.689 2.689 0 0 0 1.762.518 6.946 6.946 0 0 0 1.992-.463 7.517 7.517 0 0 1 2-.441 8.781 8.781 0 0 1 2.121.229 7.227 7.227 0 0 0 2.021.212 2.319 2.319 0 0 0 1.493-.67 1.409 1.409 0 0 0 .425-1.271 1.483 1.483 0 0 0-1.117-.914m-3.726-3.645a1.16 1.16 0 0 1-1.01.939c-.259.018-1.532.091-1.382-1.178s1.178-.94 1.178-.94c.642-.019 1.345.481 1.214 1.178m9.907-5.316a3 3 0 0 0-.431-1.225c-.55-.612-.92-1.35-1.715-1.655a1.263 1.263 0 0 0-1.411.612 3.382 3.382 0 0 0-.735 2.819 1.369 1.369 0 0 0 .611 1.1 21.638 21.638 0 0 1 .062 10.119 5.548 5.548 0 0 0-.491 2.2 1.966 1.966 0 0 0 3.005.92 2.318 2.318 0 0 0 .918-1.779c.062-2.084-.059-4.169-.122-6.255a44.642 44.642 0 0 1 .185-5.7 6.939 6.939 0 0 0 .125-1.167" transform="translate(-48.211 -7.229)" style="fill:#1b1311"/>
            <path data-name="패스 334" d="M85.425 69.384v-5.408h.614v2.731l1.9-2.731h.781l-1.729 2.271 1.785 3.138h-.772l-1.4-2.564-.56.7v1.866z" transform="translate(-48.211 -36.106)" style="fill:#1b1311"/>
            <path data-name="패스 335" d="M93.392 66.442A4.452 4.452 0 0 1 93.7 64.6a1.463 1.463 0 0 1 1.429-.886 1.609 1.609 0 0 1 1.194.443 2.185 2.185 0 0 1 .521 1.069 5.884 5.884 0 0 1 .12 1.28 9.475 9.475 0 0 1-.047 1.164 2.175 2.175 0 0 1-.447 1.151 1.6 1.6 0 0 1-1.3.524 1.571 1.571 0 0 1-1.188-.449 2.29 2.29 0 0 1-.494-1.1 7.426 7.426 0 0 1-.1-1.349m.641-.027a8.847 8.847 0 0 0 .046 1.083 2.056 2.056 0 0 0 .308.919.911.911 0 0 0 .794.388 1.013 1.013 0 0 0 1.028-.858 6.9 6.9 0 0 0 .113-1.532 4.2 4.2 0 0 0-.2-1.513 1 1 0 0 0-1-.654.862.862 0 0 0-.768.43 3.451 3.451 0 0 0-.32 1.737" transform="translate(-52.708 -35.957)" style="fill:#1b1311"/>
            <path data-name="패스 336" d="M103.123 69.385v-5.408h1.595a1.87 1.87 0 0 1 1.062.273 1.22 1.22 0 0 1 .528 1.089 1.394 1.394 0 0 1-.314.948 1.061 1.061 0 0 1-.694.368l.46.122a.752.752 0 0 1 .38.559l.107 1.144c.067.49.161.734.28.734v.171h-.717a1.841 1.841 0 0 1-.122-.484 5.986 5.986 0 0 1-.049-.845q0-1.062-.841-1.062h-1.062v2.391zm.613-2.956h.875a1.037 1.037 0 0 0 .814-.293 1.11 1.11 0 0 0 .213-.736.754.754 0 0 0-.271-.653 1.336 1.336 0 0 0-.8-.2h-.835z" transform="translate(-58.2 -36.107)" style="fill:#1b1311"/>
            <path data-name="패스 337" d="M112.085 69.385v-5.408h2.737v.572H112.7v1.7h1.956v.566H112.7v2h2.062v.566z" transform="translate(-63.258 -36.107)" style="fill:#1b1311"/>
            <path data-name="패스 338" d="m118.506 69.385 1.5-5.408h.841l1.448 5.408h-.678l-.385-1.541h-1.677l-.386 1.539zm2.564-2.1-.673-2.8-.66 2.8z" transform="translate(-66.882 -36.107)" style="fill:#1b1311"/>
            <path data-name="패스 339" d="M127.852 69.385v-5.408h1.007l1.663 4.9.007-4.9h.614v5.408h-1.008l-1.669-4.96v4.96z" transform="translate(-72.157 -36.107)" style="fill:#1b1311"/>
            <path data-name="패스 340" d="M141.475 69.386v-5.408h1.508a1.8 1.8 0 0 1 1.082.279 1.51 1.51 0 0 1 .54 1.315 1.6 1.6 0 0 1-.334 1.083 1.561 1.561 0 0 1-1.235.449h-.948v2.282zm.613-2.874h.835a1.091 1.091 0 0 0 .765-.228 1.072 1.072 0 0 0 .243-.8q0-.912-.948-.913h-.895z" transform="translate(-79.845 -36.107)" style="fill:#1b1311"/>
            <path data-name="패스 341" d="M149.549 69.385v-5.408h.555V66.2h2.076v-2.223h.554v5.408h-.554v-2.616h-2.08v2.616z" transform="translate(-84.401 -36.107)" style="fill:#1b1311"/>
            <path data-name="패스 342" d="m157.762 69.385 1.5-5.408h.841l1.449 5.408h-.678l-.385-1.541h-1.678l-.385 1.539zm2.563-2.1-.673-2.8-.66 2.8z" transform="translate(-89.037 -36.107)" style="fill:#1b1311"/>
            <path data-name="패스 343" d="M167.369 69.385v-5.408h1.6a1.869 1.869 0 0 1 1.061.273 1.22 1.22 0 0 1 .528 1.089 1.4 1.4 0 0 1-.315.948 1.059 1.059 0 0 1-.694.368l.461.122a.751.751 0 0 1 .38.559l.107 1.144q.1.735.281.734v.171h-.717a1.844 1.844 0 0 1-.122-.484 5.979 5.979 0 0 1-.049-.845q0-1.062-.84-1.062h-1.062v2.391zm.614-2.956h.875a1.036 1.036 0 0 0 .814-.293 1.11 1.11 0 0 0 .213-.736.753.753 0 0 0-.27-.653 1.336 1.336 0 0 0-.8-.2h-.835z" transform="translate(-94.459 -36.107)" style="fill:#1b1311"/>
            <path data-name="패스 344" d="M176.334 69.385v-5.408h1.12l1.117 4.6 1.115-4.6h1.054v5.408h-.554v-5.067l-1.286 5.067h-.668l-1.289-5.068v5.068z" transform="translate(-99.518 -36.107)" style="fill:#1b1311"/>
            <path data-name="패스 345" d="m187.227 69.385 1.5-5.408h.84l1.448 5.408h-.677l-.385-1.541h-1.676l-.386 1.539zm2.564-2.1-.675-2.8-.66 2.8z" transform="translate(-105.666 -36.107)" style="fill:#1b1311"/>
            <path data-name="패스 346" d="M196.192 66.54a7.275 7.275 0 0 1 .093-1.3 2.545 2.545 0 0 1 .467-1.164 1.321 1.321 0 0 1 1.094-.5 1.571 1.571 0 0 1 1.128.382 1.917 1.917 0 0 1 .474 1.443h-.575a1.631 1.631 0 0 0-.174-.837.9.9 0 0 0-.847-.415.787.787 0 0 0-.751.541 4.958 4.958 0 0 0-.237 1.809 5.379 5.379 0 0 0 .148 1.485.867.867 0 0 0 .86.715.8.8 0 0 0 .733-.423 2.254 2.254 0 0 0 .222-1.1h.62a2.7 2.7 0 0 1-.348 1.5 1.567 1.567 0 0 1-2.594-.177 4.6 4.6 0 0 1-.315-1.948" transform="translate(-110.726 -35.877)" style="fill:#1b1311"/>
            <path data-name="패스 347" d="M204.909 69.385v-5.408h2.737v.572h-2.123v1.7h1.956v.566h-1.956v2h2.063v.566z" transform="translate(-115.645 -36.107)" style="fill:#1b1311"/>
            <path data-name="패스 348" d="M212.464 63.977h.614v3.868a1.149 1.149 0 0 0 .274.865 1.029 1.029 0 0 0 .735.225.918.918 0 0 0 .76-.3 1.425 1.425 0 0 0 .24-.909v-3.749h.615v4.093a1.333 1.333 0 0 1-1.556 1.43 1.752 1.752 0 0 1-1.368-.442 1.842 1.842 0 0 1-.314-1.213z" transform="translate(-119.909 -36.107)" style="fill:#1b1311"/>
            <path data-name="패스 349" d="M220.554 63.977h3.346v.623h-1.341v4.781h-.614V64.6h-1.389z" transform="translate(-124.475 -36.107)" style="fill:#1b1311"/>
            <path data-name="사각형 11" transform="translate(99.871 27.87)" style="fill:#1b1311" d="M0 0h.613v5.408H0z"/>
            <path data-name="패스 350" d="M232.322 66.54a7.312 7.312 0 0 1 .094-1.3 2.546 2.546 0 0 1 .467-1.164 1.325 1.325 0 0 1 1.1-.5 1.571 1.571 0 0 1 1.128.382 1.913 1.913 0 0 1 .473 1.443h-.573a1.635 1.635 0 0 0-.174-.837.9.9 0 0 0-.847-.415.784.784 0 0 0-.751.541 4.914 4.914 0 0 0-.239 1.803 5.358 5.358 0 0 0 .149 1.485.865.865 0 0 0 .859.715.8.8 0 0 0 .733-.423 2.239 2.239 0 0 0 .222-1.1h.62a2.7 2.7 0 0 1-.348 1.5 1.566 1.566 0 0 1-2.594-.177 4.606 4.606 0 0 1-.315-1.948" transform="translate(-131.116 -35.877)" style="fill:#1b1311"/>
            <path data-name="패스 351" d="m240.029 69.385 1.5-5.408h.842l1.448 5.408h-.678l-.385-1.541h-1.677l-.386 1.539zm2.563-2.1-.673-2.8-.66 2.8z" transform="translate(-135.466 -36.107)" style="fill:#1b1311"/>
            <path data-name="패스 352" d="M249.5 69.385v-5.408h.614v4.843h2.186v.566z" transform="translate(-140.811 -36.107)" style="fill:#1b1311"/>
            <path data-name="패스 353" d="m259.932 69.385 1.5-5.408h.841l1.449 5.408h-.678l-.384-1.541h-1.677l-.386 1.539zm2.564-2.1-.674-2.8-.66 2.8z" transform="translate(-146.699 -36.107)" style="fill:#1b1311"/>
            <path data-name="패스 354" d="M268.9 67.54h.587a2.361 2.361 0 0 0 .113.9.9.9 0 0 0 .916.464.97.97 0 0 0 .7-.248.954.954 0 0 0 .258-.717V67.8a.868.868 0 0 0-.074-.408.962.962 0 0 0-.455-.359l-.569-.217-.679-.25a1.216 1.216 0 0 1-.62-.593 1.472 1.472 0 0 1-.127-.614 1.716 1.716 0 0 1 .261-.975 1.423 1.423 0 0 1 1.255-.545 1.384 1.384 0 0 1 1.295.6 1.864 1.864 0 0 1 .207.94h-.614a.983.983 0 0 0-.244-.723.96.96 0 0 0-1.324.041.905.905 0 0 0-.221.626q0 .5.661.776l1.242.484a1.291 1.291 0 0 1 .668 1.185 1.708 1.708 0 0 1-.5 1.349 1.62 1.62 0 0 1-1.1.362 1.707 1.707 0 0 1-1.174-.355 2.087 2.087 0 0 1-.46-1.58" transform="translate(-151.758 -36.027)" style="fill:#1b1311"/>
            <path data-name="패스 355" d="M277.232 67.54h.587a2.321 2.321 0 0 0 .114.9.9.9 0 0 0 .914.464.972.972 0 0 0 .7-.248.95.95 0 0 0 .257-.717V67.8a.858.858 0 0 0-.073-.408.966.966 0 0 0-.455-.359l-.568-.217-.679-.25a1.221 1.221 0 0 1-.62-.593 1.471 1.471 0 0 1-.126-.614 1.719 1.719 0 0 1 .26-.975 1.425 1.425 0 0 1 1.255-.545 1.385 1.385 0 0 1 1.295.6 1.879 1.879 0 0 1 .206.94h-.613a.987.987 0 0 0-.244-.723.961.961 0 0 0-1.325.041.9.9 0 0 0-.22.626q0 .5.661.776l1.241.484a1.292 1.292 0 0 1 .668 1.185 1.706 1.706 0 0 1-.5 1.349 1.615 1.615 0 0 1-1.1.362 1.7 1.7 0 0 1-1.174-.355 2.079 2.079 0 0 1-.461-1.58" transform="translate(-156.462 -36.027)" style="fill:#1b1311"/>
            <path data-name="패스 356" d="M285.7 66.442a4.434 4.434 0 0 1 .309-1.845 1.461 1.461 0 0 1 1.428-.886 1.609 1.609 0 0 1 1.194.443 2.184 2.184 0 0 1 .521 1.069 5.939 5.939 0 0 1 .12 1.28 9.141 9.141 0 0 1-.048 1.164 2.161 2.161 0 0 1-.447 1.151 1.6 1.6 0 0 1-1.3.524 1.573 1.573 0 0 1-1.188-.449 2.294 2.294 0 0 1-.494-1.1 7.377 7.377 0 0 1-.1-1.349m.642-.027a8.915 8.915 0 0 0 .047 1.083 2.051 2.051 0 0 0 .307.919.91.91 0 0 0 .794.388 1.013 1.013 0 0 0 1.028-.858 6.892 6.892 0 0 0 .114-1.532 4.19 4.19 0 0 0-.2-1.513 1 1 0 0 0-1-.654.862.862 0 0 0-.768.43 3.446 3.446 0 0 0-.32 1.737" transform="translate(-161.244 -35.957)" style="fill:#1b1311"/>
            <path data-name="패스 357" d="M294.793 66.54a7.229 7.229 0 0 1 .094-1.3 2.546 2.546 0 0 1 .467-1.164 1.323 1.323 0 0 1 1.094-.5 1.569 1.569 0 0 1 1.128.382 1.913 1.913 0 0 1 .474 1.443h-.574a1.636 1.636 0 0 0-.173-.837.9.9 0 0 0-.848-.415.785.785 0 0 0-.751.541 4.928 4.928 0 0 0-.237 1.809 5.359 5.359 0 0 0 .149 1.485.865.865 0 0 0 .859.715.8.8 0 0 0 .733-.423 2.239 2.239 0 0 0 .222-1.1h.62a2.705 2.705 0 0 1-.348 1.5 1.566 1.566 0 0 1-2.594-.177 4.593 4.593 0 0 1-.315-1.948" transform="translate(-166.373 -35.877)" style="fill:#1b1311"/>
            <path data-name="사각형 12" transform="translate(132.331 27.87)" style="fill:#1b1311" d="M0 0h.613v5.408H0z"/>
            <path data-name="패스 358" d="m306.206 69.385 1.5-5.408h.841L310 69.385h-.678l-.385-1.541h-1.677l-.385 1.539zm2.565-2.1-.674-2.8-.659 2.8z" transform="translate(-172.814 -36.107)" style="fill:#1b1311"/>
            <path data-name="패스 359" d="M314.544 63.977h3.344v.623h-1.342v4.781h-.613V64.6h-1.388z" transform="translate(-177.52 -36.107)" style="fill:#1b1311"/>
            <path data-name="사각형 13" transform="translate(140.815 27.87)" style="fill:#1b1311" d="M0 0h.613v5.408H0z"/>
            <path data-name="패스 360" d="M326.448 66.442a4.459 4.459 0 0 1 .308-1.845 1.463 1.463 0 0 1 1.428-.886 1.609 1.609 0 0 1 1.195.443 2.184 2.184 0 0 1 .521 1.069 5.883 5.883 0 0 1 .12 1.28 9.36 9.36 0 0 1-.047 1.164 2.161 2.161 0 0 1-.447 1.151 1.6 1.6 0 0 1-1.3.524 1.573 1.573 0 0 1-1.188-.449 2.294 2.294 0 0 1-.494-1.1 7.426 7.426 0 0 1-.1-1.349m.642-.027a8.939 8.939 0 0 0 .046 1.083 2.051 2.051 0 0 0 .307.919.911.911 0 0 0 .794.388 1.013 1.013 0 0 0 1.028-.858 6.837 6.837 0 0 0 .114-1.532 4.223 4.223 0 0 0-.2-1.513 1 1 0 0 0-1-.654.86.86 0 0 0-.767.43 3.435 3.435 0 0 0-.321 1.737" transform="translate(-184.239 -35.957)" style="fill:#1b1311"/>
            <path data-name="패스 361" d="M335.918 69.385v-5.408h1.006l1.663 4.9.007-4.9h.616v5.408h-1.01l-1.668-4.96v4.96z" transform="translate(-189.583 -36.107)" style="fill:#1b1311"/>
        </g>
    </g>
</svg>
